P1
# Un bonnet de Noël
9 6

0 0 0 1 1 1 0 0 0
0 0 1 1 1 1 1 0 0
0 1 1 1 1 1 0 1 1
1 1 1 1 1 1 0 1 1
1 1 1 1 1 1 0 0 0
1 1 1 1 1 1 0 0 0
