P1
# Un exemple de fichier pbm
7 9

0 0 0 1 1 1 1 
0 0 0 1 1 1 1 
0 0 0 1 1 1 1 
0 0 0 1 1 1 1 
1 0 0 1 1 1 1 
1 1 1 1 1 1 1
1 1 1 1 1 1 1
1 1 1 1 1 1 0
0 1 1 1 1 0 0
