P3
# Cadeau
6 6
255
255 255 255  255 255 255  255 000 255  000 000 255  255 255 255  255 255 255
000 255 000  000 255 000  000 000 255  000 000 255  000 255 000  000 255 000
000 255 000  000 255 000  000 000 255  000 000 255  000 255 000  255 000 255
255 255 000  255 000 255  000 000 255  000 000 255  255 000 255  255 255 000
000 255 000  000 255 000  255 000 255  000 000 255  000 255 000  000 255 000
000 255 000  000 255 000  000 000 255  000 000 255  000 255 000  000 255 000



