P3
# Un bonnet de Noël
9 6
255
000 000 000  000 000 000  000 000 000  255 000 000  255 000 000  255 000 000  255 000 000  000 000 000  000 000 000
000 000 000  000 000 000  255 000 000  255 000 000  255 000 000  255 000 000  255 000 000  000 000 000  000 000 000
000 000 000  255 000 000  255 000 000  255 000 000  255 000 000  255 000 000  000 000 000  255 255 255  255 255 255
255 000 000  255 000 000  255 000 000  255 000 000  255 000 000  255 000 000  000 000 000  255 255 255  255 255 255
255 255 255  255 255 255  255 255 255  255 255 255  255 255 255  255 255 255  000 000 000  000 000 000  000 000 000
255 255 255  255 255 255  255 255 255  255 255 255  255 255 255  255 255 255  000 000 000  000 000 000  000 000 000