P3
# Sapin
9 8
255
255 255 255  255 255 255  255 255 255  255 255 255  000 255 000  255 255 255  255 255 255  255 255 255  255 255 255
255 255 255  255 255 255  255 255 255  255 255 255  000 255 000  255 255 255  255 255 255  255 255 255  255 255 255
255 255 255  255 255 255  255 255 255  000 255 000  000 255 000  000 000 255  255 255 255  255 255 255  255 255 255
255 255 255  255 255 255  255 000 000  000 255 000  000 255 000  000 255 000  000 255 000  255 255 255  255 255 255
255 255 255  000 255 000  000 255 000  255 000 000  255 000 000  255 000 000  000 255 000  000 255 000  255 255 255
000 255 000  000 000 255  000 255 000  000 255 000  000 255 000  000 255 000  255 000 000  000 255 000  000 255 000 
255 255 255  255 255 255  255 255 255  255 255 255  000 000 000  255 255 255  255 255 255  255 255 255  255 255 255
255 255 255  255 255 255  255 255 255  255 255 255  000 000 000  255 255 255  255 255 255  255 255 255  255 255 255