P3
# Chaussette
7 8
255
000 000 000  000 000 000  000 000 000  000 000 000  000 000 000  000 000 000  000 000 000
000 000 000  000 000 000  000 000 000  255 255 255  255 255 255  255 255 255  255 255 255
000 000 000  000 000 000  000 000 000  255 255 255  255 255 255  255 255 255  255 255 255
000 000 000  000 000 000  000 000 000  255 255 255  255 255 255  255 255 255  255 255 255
255 000 000  000 000 000  000 000 000  255 000 000  255 000 000  255 000 000  255 000 000
255 000 000  255 255 255  255 000 000  255 000 000  255 000 000  255 000 000  255 255 255
255 000 000  255 000 000  255 000 000  255 255 255  255 000 000  255 000 000  000 000 000
000 000 000  255 000 000  255 000 000  255 000 000  255 000 000  000 000 000  000 000 000
